<svg width="52" height="50" viewBox="0 0 52 50" fill="none" xmlns="http://www.w3.org/2000/svg">
<g clip-path="url(#clip0_30_140)">
<path d="M37 24V13C37 6.92486 32.0751 2 26 2C19.925 2 15 6.92486 15 13V24" stroke="#222222" stroke-width="3" stroke-linecap="round"/>
<path d="M48.8405 25.8364C48.4416 21.049 48.2421 18.6554 46.6633 17.2027C45.0846 15.75 42.6826 15.75 37.8785 15.75H14.1213C9.31737 15.75 6.91525 15.75 5.33647 17.2027C3.75797 18.6554 3.55832 21.049 3.1593 25.8364L1.74635 42.7932C1.51397 45.5804 1.39792 46.974 2.21495 47.862C3.03197 48.75 4.43035 48.75 7.22737 48.75H44.7726C47.5695 48.75 48.9679 48.75 49.7849 47.862C50.602 46.974 50.4858 45.5804 50.2536 42.7932L48.8405 25.8364Z" stroke="#222222" stroke-width="3"/>
</g>
<defs>
<clipPath id="clip0_30_140">
<rect width="52" height="50" fill="white" transform="matrix(-1 0 0 1 52 0)"/>
</clipPath>
</defs>
</svg>
