<svg width="609" height="36" viewBox="0 0 609 36" fill="none" xmlns="http://www.w3.org/2000/svg">
<g clip-path="url(#clip0_85_177)">
<path fill-rule="evenodd" clip-rule="evenodd" d="M15.7775 21.3937C10.2737 21.3937 5.81214 17.01 5.81214 11.5938C5.81214 6.1775 10.2737 1.78503 15.7775 1.78503C21.2812 1.78503 25.7438 6.1775 25.7438 11.5938C25.7438 17.01 21.2812 21.3937 15.7775 21.3937ZM31.727 26.4688L24.5004 19.355C26.3921 17.2987 27.555 14.5863 27.555 11.5938C27.555 5.18875 22.2822 0 15.7775 0C9.27274 0 4 5.18875 4 11.5938C4 17.99 9.27274 23.1787 15.7775 23.1787C18.588 23.1787 21.1658 22.2075 23.1905 20.5888L30.446 27.7287C30.8004 28.0787 31.3735 28.0787 31.727 27.7287C32.0814 27.3875 32.0814 26.8188 31.727 26.4688Z" fill="black"/>
</g>
<rect y="34" width="609" height="2" rx="1" fill="black"/>
<defs>
<clipPath id="clip0_85_177">
<rect width="28" height="28" fill="white" transform="translate(4)"/>
</clipPath>
</defs>
</svg>
